<?xml version="1.0" encoding="utf-8" ?>
<svg xmlns="http://www.w3.org/2000/svg" xmlns:ev="http://www.w3.org/2001/xml-events" xmlns:xlink="http://www.w3.org/1999/xlink" baseProfile="full" height="297mm" version="1.1" width="420mm">
  <defs>
    <style type="text/css"><![CDATA[.debug {
	stroke: red;
	stroke-width: 0.02in;
	fill: none;
}

.l {
	stroke: black;
	stroke-width: 0.01in;
}

.label, .title-label, .title-content {
	font-family: "arial";
	font-size: 0.188in;
}

.title-label {
	text-anchor: right;
}

.title-label, .title-content {
	transform: rotate(-90deg);
}

.title-content{
	white-space: pre;
}
]]></style>
  </defs>
  <line class="l" x1="15.785433070866144in" x2="15.785433070866144in" y1="3.096456692913386in" y2="8.596456692913385in"/>
  <text class="title-label" x="-8.256456692913385in" y="15.723433070866145in">DRAWING:</text>
  <text class="title-content" x="-7.096456692913385in" y="15.723433070866145in">                 OF </text>
  <line class="l" x1="15.535433070866144in" x2="15.535433070866144in" y1="3.096456692913386in" y2="8.596456692913385in"/>
  <text class="title-label" x="-7.9164566929133855in" y="15.473433070866145in">EMAIL:</text>
  <text class="title-content" x="-7.096456692913385in" y="15.473433070866145in"/>
  <line class="l" x1="15.285433070866144in" x2="15.285433070866144in" y1="3.096456692913386in" y2="8.596456692913385in"/>
  <text class="title-label" x="-8.016456692913385in" y="15.223433070866145in">PHONE:</text>
  <text class="title-content" x="-7.096456692913385in" y="15.223433070866145in"/>
  <line class="l" x1="15.035433070866144in" x2="15.035433070866144in" y1="3.096456692913386in" y2="8.596456692913385in"/>
  <text class="title-label" x="-8.346456692913385in" y="14.973433070866145in"/>
  <text class="title-content" x="-7.096456692913385in" y="14.973433070866145in"/>
  <line class="l" x1="14.785433070866144in" x2="14.785433070866144in" y1="3.096456692913386in" y2="8.596456692913385in"/>
  <text class="title-label" x="-8.261456692913384in" y="14.723433070866145in">ADDRESS:</text>
  <text class="title-content" x="-7.096456692913385in" y="14.723433070866145in"/>
  <line class="l" x1="14.535433070866144in" x2="14.535433070866144in" y1="3.096456692913386in" y2="8.596456692913385in"/>
  <text class="title-label" x="-8.346456692913385in" y="14.473433070866145in">DRAWN BY:</text>
  <text class="title-content" x="-7.096456692913385in" y="14.473433070866145in"/>
  <line class="l" x1="14.285433070866144in" x2="14.285433070866144in" y1="3.096456692913386in" y2="8.596456692913385in"/>
  <text class="title-label" x="-8.206456692913385in" y="14.223433070866145in">PROJECT:</text>
  <text class="title-content" x="-7.096456692913385in" y="14.223433070866145in"/>
  <line class="l" x1="14.035433070866144in" x2="14.035433070866144in" y1="3.096456692913386in" y2="8.596456692913385in"/>
  <line class="l" x1="15.785433070866144in" x2="14.035433070866144in" y1="3.096456692913386in" y2="3.096456692913386in"/>
  <line class="l" x1="15.785433070866144in" x2="14.035433070866144in" y1="8.596456692913385in" y2="8.596456692913385in"/>
  <line class="l" x1="0.75in" x2="13.285433070866144in" y1="1.0in" y2="1.0in"/>
  <line class="l" x1="0.75in" x2="13.285433070866144in" y1="1.25in" y2="1.25in"/>
  <line class="l" x1="0.75in" x2="13.285433070866144in" y1="1.5in" y2="1.5in"/>
  <line class="l" x1="0.75in" x2="13.285433070866144in" y1="1.75in" y2="1.75in"/>
  <line class="l" x1="0.75in" x2="13.285433070866144in" y1="2.0in" y2="2.0in"/>
  <line class="l" x1="0.75in" x2="13.285433070866144in" y1="2.25in" y2="2.25in"/>
  <line class="l" x1="0.75in" x2="13.285433070866144in" y1="2.5in" y2="2.5in"/>
  <line class="l" x1="0.75in" x2="13.285433070866144in" y1="2.75in" y2="2.75in"/>
  <line class="l" x1="0.75in" x2="13.285433070866144in" y1="3.0in" y2="3.0in"/>
  <line class="l" x1="0.75in" x2="13.285433070866144in" y1="3.25in" y2="3.25in"/>
  <line class="l" x1="0.75in" x2="13.285433070866144in" y1="3.5in" y2="3.5in"/>
  <line class="l" x1="0.75in" x2="13.285433070866144in" y1="3.75in" y2="3.75in"/>
  <line class="l" x1="0.75in" x2="13.285433070866144in" y1="4.0in" y2="4.0in"/>
  <line class="l" x1="0.75in" x2="13.285433070866144in" y1="4.25in" y2="4.25in"/>
  <line class="l" x1="0.75in" x2="13.285433070866144in" y1="4.5in" y2="4.5in"/>
  <line class="l" x1="0.75in" x2="13.285433070866144in" y1="4.75in" y2="4.75in"/>
  <line class="l" x1="0.75in" x2="13.285433070866144in" y1="5.0in" y2="5.0in"/>
  <line class="l" x1="0.75in" x2="13.285433070866144in" y1="5.25in" y2="5.25in"/>
  <line class="l" x1="0.75in" x2="13.285433070866144in" y1="5.5in" y2="5.5in"/>
  <line class="l" x1="0.75in" x2="13.285433070866144in" y1="5.75in" y2="5.75in"/>
  <line class="l" x1="0.75in" x2="13.285433070866144in" y1="6.0in" y2="6.0in"/>
  <line class="l" x1="0.75in" x2="13.285433070866144in" y1="6.25in" y2="6.25in"/>
  <line class="l" x1="0.75in" x2="13.285433070866144in" y1="6.5in" y2="6.5in"/>
  <line class="l" x1="0.75in" x2="13.285433070866144in" y1="6.75in" y2="6.75in"/>
  <line class="l" x1="0.75in" x2="13.285433070866144in" y1="7.0in" y2="7.0in"/>
  <line class="l" x1="0.75in" x2="13.285433070866144in" y1="7.25in" y2="7.25in"/>
  <line class="l" x1="0.75in" x2="13.285433070866144in" y1="7.5in" y2="7.5in"/>
  <line class="l" x1="0.75in" x2="13.285433070866144in" y1="7.75in" y2="7.75in"/>
  <line class="l" x1="0.75in" x2="13.285433070866144in" y1="8.0in" y2="8.0in"/>
  <line class="l" x1="0.75in" x2="13.285433070866144in" y1="8.25in" y2="8.25in"/>
  <line class="l" x1="0.75in" x2="13.285433070866144in" y1="8.5in" y2="8.5in"/>
  <line class="l" x1="0.75in" x2="13.285433070866144in" y1="8.75in" y2="8.75in"/>
  <line class="l" x1="0.75in" x2="13.285433070866144in" y1="9.0in" y2="9.0in"/>
  <line class="l" x1="0.75in" x2="13.285433070866144in" y1="9.25in" y2="9.25in"/>
  <line class="l" x1="0.75in" x2="13.285433070866144in" y1="9.5in" y2="9.5in"/>
  <line class="l" x1="0.75in" x2="13.285433070866144in" y1="9.75in" y2="9.75in"/>
  <line class="l" x1="0.75in" x2="13.285433070866144in" y1="10.0in" y2="10.0in"/>
  <line class="l" x1="0.75in" x2="13.285433070866144in" y1="10.25in" y2="10.25in"/>
  <line class="l" x1="0.75in" x2="13.285433070866144in" y1="10.5in" y2="10.5in"/>
  <line class="l" x1="0.75in" x2="13.285433070866144in" y1="10.75in" y2="10.75in"/>
  <line class="l" x1="0.75in" x2="0.75in" y1="1.0in" y2="10.75in"/>
  <text class="label" x="0.9375in" y="1.188in">PART</text>
  <line class="l" x1="3.25in" x2="3.25in" y1="0.75in" y2="10.75in"/>
  <text class="label" x="3.4375in" y="1.188in">#</text>
  <line class="l" x1="3.75in" x2="3.75in" y1="1.0in" y2="10.75in"/>
  <text class="label" x="3.9375in" y="1.188in">L</text>
  <text class="label" x="3.9375in" y="0.938in">ROUGH</text>
  <line class="l" x1="4.25in" x2="4.25in" y1="1.0in" y2="10.75in"/>
  <text class="label" x="4.4375in" y="1.188in">W</text>
  <line class="l" x1="4.75in" x2="4.75in" y1="1.0in" y2="10.75in"/>
  <text class="label" x="4.9375in" y="1.188in">T</text>
  <line class="l" x1="5.25in" x2="5.25in" y1="0.75in" y2="10.75in"/>
  <text class="label" x="5.4375in" y="1.188in"/>
  <line class="l" x1="5.3125in" x2="5.3125in" y1="0.75in" y2="10.75in"/>
  <text class="label" x="5.5in" y="1.188in">#</text>
  <line class="l" x1="5.8125in" x2="5.8125in" y1="1.0in" y2="10.75in"/>
  <text class="label" x="6.0in" y="1.188in">L</text>
  <text class="label" x="5.875in" y="0.938in">FINISHED</text>
  <line class="l" x1="6.3125in" x2="6.3125in" y1="1.0in" y2="10.75in"/>
  <text class="label" x="6.5in" y="1.188in">W</text>
  <line class="l" x1="6.8125in" x2="6.8125in" y1="1.0in" y2="10.75in"/>
  <text class="label" x="7.0in" y="1.188in">T</text>
  <line class="l" x1="7.3125in" x2="7.3125in" y1="0.75in" y2="10.75in"/>
  <text class="label" x="7.5in" y="1.188in">WOOD</text>
  <line class="l" x1="8.8125in" x2="8.8125in" y1="1.0in" y2="10.75in"/>
  <text class="label" x="9.0in" y="1.188in">COMMENTS</text>
  <line class="l" x1="12.035433070866144in" x2="12.035433070866144in" y1="1.0in" y2="10.75in"/>
  <text class="label" x="12.222933070866144in" y="1.188in">BOARD FT</text>
  <line class="l" x1="13.285433070866144in" x2="13.285433070866144in" y1="1.0in" y2="10.75in"/>
  <line class="l" x1="3.25in" x2="7.3125in" y1="0.75in" y2="0.75in"/>
</svg>
